<?xml version="1.0" standalone="no"?><!DOCTYPE svg PUBLIC "-//W3C//DTD SVG 1.1//EN" "http://www.w3.org/Graphics/SVG/1.1/DTD/svg11.dtd"><svg class="icon" width="114px" height="114.00px" viewBox="0 0 1024 1024" version="1.1" xmlns="http://www.w3.org/2000/svg"><path d="M286 268h185a5 5 0 0 1 5 5v617a5 5 0 0 1-5 5H280a5 5 0 0 1-5-5V279c0-6.075 4.925-11 11-11z" fill="#00DDB9" /><path d="M275 337h190v45H275z" fill="#FF8484" /><path d="M283 113h152v122H283z" fill="#FFDA84" /><path d="M283 113h47v122H283z" fill="#FFE8B3" /><path d="M386 113h47v122h-47z" fill="#FECA50" /><path d="M582 669m6 0l192 0q6 0 6 6l0 209q0 6-6 6l-192 0q-6 0-6-6l0-209q0-6 6-6Z" fill="#00DDB9" /><path d="M663.86 473h35.64L714 650h-61.5l8.363-174.144a3 3 0 0 1 2.996-2.856z" fill="#FFDA84" /><path d="M432.935 105c8.284 0 15 6.716 15 15v0.065L447.5 220v2.5c0 6.8 5.43 12.333 12.192 12.496L460 235c11.046 0 20 8.954 20 20v620c0 11.046-8.954 20-20 20H260c-11.046 0-20-8.954-20-20V255c0-11.046 8.954-20 20-20h-1c6.904 0 12.5-8.096 12.5-15l0.435-100.065C271.971 111.676 278.676 105 286.935 105h146zM671 155c5.523 0 10 4.477 10 10v6h14.5a2.5 2.5 0 1 1 0 5H681v10h17.5a2.5 2.5 0 1 1 0 5H681v10h20.5a2.5 2.5 0 1 1 0 5H681v10h23.5a2.5 2.5 0 1 1 0 5H681v10h26.5a2.5 2.5 0 1 1 0 5H681v10h29.5a2.5 2.5 0 1 1 0 5H681v10h32.5a2.5 2.5 0 1 1 0 5H681v10h29.5a2.5 2.5 0 1 1 0 5H681v10h26.5a2.5 2.5 0 1 1 0 5H681v10h23.5a2.5 2.5 0 1 1 0 5H681v10h20.5a2.5 2.5 0 1 1 0 5H681v10h17.5a2.5 2.5 0 1 1 0 5H681v10h14.5a2.5 2.5 0 1 1 0 5H681v9a9.996 9.996 0 0 1-4.999 8.662L676 445h15.7c8.006 0 14.6 6.287 14.983 14.283l8.565 179c0.011 0.24 0.017 0.48 0.017 0.717H775c8.284 0 15 6.716 15 15v226c0 8.284-6.716 15-15 15H565c-8.284 0-15-6.716-15-15V654c0-8.284 6.716-15 15-15h61.735a15 15 0 0 1 0.017-0.717l8.565-179c0.382-7.996 6.977-14.283 14.982-14.283H666v-71.338a9.996 9.996 0 0 1-5-8.662v-9h-14.5a2.5 2.5 0 1 1 0-5H661v-10h-17.5a2.5 2.5 0 1 1 0-5H661v-10h-20.5a2.5 2.5 0 1 1 0-5H661v-10h-23.5a2.5 2.5 0 1 1 0-5H661v-10h-26.5a2.5 2.5 0 1 1 0-5H661v-10h-29.5a2.5 2.5 0 1 1 0-5H661v-10h-32.5a2.5 2.5 0 1 1 0-5H661v-10h-29.5a2.5 2.5 0 1 1 0-5H661v-10h-26.5a2.5 2.5 0 1 1 0-5H661v-10h-23.5a2.5 2.5 0 1 1 0-5H661v-10h-20.5a2.5 2.5 0 1 1 0-5H661V191h-17.5a2.5 2.5 0 1 1 0-5H661V176h-14.5a2.5 2.5 0 1 1 0-5H661v-6c0-5.523 4.477-10 10-10zM465 397H255v478a5.007 5.007 0 0 0 4.783 5H460a5 5 0 0 0 4.995-4.783L465 875V397z m305 257H570a5 5 0 0 0-5 5v216a5 5 0 0 0 5 5h200a5 5 0 0 0 5-5V659a5 5 0 0 0-5-5z m-83.728-194h-30.544a5 5 0 0 0-4.992 4.721l-9.441 169a5 5 0 0 0 4.992 5.279h49.426a5 5 0 0 0 4.992-5.279l-9.441-169a5 5 0 0 0-4.992-4.721zM460 337H260a5 5 0 0 0-5 5v35a5 5 0 0 0 5 5h200a5 5 0 0 0 5-5v-35a5 5 0 0 0-5-5z m0.217-87H260a5 5 0 0 0-4.995 4.783L255 255v67h210v-67a5.007 5.007 0 0 0-4.783-5zM428 120H291.978a5 5 0 0 0-5 4.978l-0.456 105a5 5 0 0 0 5 5.022h136a5 5 0 0 0 5-4.978l0.456-105A5 5 0 0 0 428 120z" fill="#3D3D3D" /></svg>