<?xml version="1.0" standalone="no"?><!DOCTYPE svg PUBLIC "-//W3C//DTD SVG 1.1//EN" "http://www.w3.org/Graphics/SVG/1.1/DTD/svg11.dtd"><svg class="icon" width="114px" height="114.00px" viewBox="0 0 1024 1024" version="1.1" xmlns="http://www.w3.org/2000/svg"><path d="M279 454h177.5c24.853 0 45 20.147 45 45v390H244V489c0-19.33 15.67-35 35-35zM611 399h176c14.912 0 27 12.088 27 27v432c0 17.12-13.88 31-31 31H584V426c0-14.912 12.088-27 27-27z" fill="#00DDB9" /><path d="M695.5 120c21.569 0 39.054 17.485 39.054 39.054 0 0.148-0.001 0.296-0.003 0.443L733.5 252l7.5 20h-90l4.59-14.687a60 60 0 0 0 2.72-19.068l-1.539-78.753c-0.417-21.389 16.583-39.067 37.973-39.485 0.252-0.005 0.504-0.007 0.756-0.007z" fill="#FF8484" /><path d="M600 277h162v91H600z" fill="#D6FFF8" /><path d="M600 277h45v91h-45z" fill="#F2FFFD" /><path d="M717 277h45v91h-45z" fill="#A6F3E6" /><path d="M584 558h216v228H584z" fill="#FFDA84" /><path d="M267 382h186v43H267z" fill="#00DDB9" /><path d="M267 382h52v43h-52z" fill="#46F6DA" /><path d="M401 382h52v43h-52z" fill="#00BFA0" /><path d="M290 289h141v78H290z" fill="#D6FFF8" /><path d="M290 289h36v78h-36z" fill="#F2FFFD" /><path d="M395 289h36v78h-36z" fill="#A6F3E6" /><path d="M331 184h112.5L431 207l-19.5 2v77.5H328V187a3 3 0 0 1 3-3zM244 558h136v236H244z" fill="#FFDA84" /><path d="M683 97.5c28.158 0 51.038 22.598 51.493 50.648l0.007 0.852v90c0 12.302 9.873 22.298 22.128 22.497l0.372 0.003h8v0.033c7.818 0.515 14 7.019 14 14.967l0.001 92.487C799.801 375.042 815 394.246 815 417v459c0 11.046-8.954 20-20 20H570c-11.046 0-20-8.954-20-20V417c0-22.019 14.233-40.713 34-47.385V276.5c0-8.284 6.716-15 15-15h10c12.302 0 22.298-9.873 22.497-22.128l0.003-0.372v-90c0-28.443 23.057-51.5 51.5-51.5z m-262.25 60c15.326 0 27.75 12.424 27.75 27.75S436.076 213 420.75 213h-3.25a5 5 0 0 0-5 5v56H430c8.284 0 15 6.716 15 15v78h8c8.284 0 15 6.716 15 15v45.747c24.343 7.646 42 30.387 42 57.253v391c0 10.93-8.769 19.813-19.656 19.997L490 896H230c-11.046 0-20-8.954-20-20V485c0-26.866 17.658-49.608 42-57.253V382c0-8.284 6.716-15 15-15h8v-78c0-8.284 6.716-15 15-15h9.5V172.5c0-8.18 6.547-14.83 14.686-14.997l0.314-0.003zM800 800.5H565V876a5.007 5.007 0 0 0 4.783 5H795a5 5 0 0 0 4.995-4.783L800 876v-75.5zM450 440H270c-24.604 0-44.597 19.746-44.994 44.256L225 485v58.5h153.5c8.284 0 15 6.716 15 15v232c0 8.284-6.716 15-15 15H225V876a5 5 0 0 0 4.783 4.995L230 881h260a5 5 0 0 0 4.995-4.783L495 876V485c0-24.604-19.746-44.597-44.256-44.994L450 440z m-76.5 118.5H225v232h148.5a5 5 0 0 0 5-5v-222a5 5 0 0 0-5-5z m426.5 0H565v227h235v-227zM765.579 382H600c-19.137 0-34.686 15.358-34.995 34.421L565 417v126.5h235V417c0-19.137-15.358-34.686-34.421-35zM448 382H272a5 5 0 0 0-5 5v33a5 5 0 0 0 5 5h176a5 5 0 0 0 5-5v-33a5 5 0 0 0-5-5z m309-105H606a5 5 0 0 0-5 5v80a5 5 0 0 0 5 5h151a5 5 0 0 0 5-5v-80a5 5 0 0 0-5-5z m-332 12H295a5 5 0 0 0-5 5v68a5 5 0 0 0 5 5h130a5 5 0 0 0 5-5v-68a5 5 0 0 0-5-5z m-4.25-116.5H319.5a5 5 0 0 0-5 5V269a5 5 0 0 0 5 5h73a5 5 0 0 0 5-5v-66a5 5 0 0 1 5-5h18.25c7.042 0 12.75-5.708 12.75-12.75s-5.708-12.75-12.75-12.75z m262.25-60c-19.957 0-36.173 16.016-36.495 35.896l-0.005 0.604v90c0 8.443-2.79 16.233-7.498 22.501h87.996a37.325 37.325 0 0 1-7.493-21.88L719.5 239v-90c0-20.158-16.342-36.5-36.5-36.5z" fill="#3D3D3D" /></svg>