<?xml version="1.0" standalone="no"?><!DOCTYPE svg PUBLIC "-//W3C//DTD SVG 1.1//EN" "http://www.w3.org/Graphics/SVG/1.1/DTD/svg11.dtd"><svg class="icon" width="114px" height="114.00px" viewBox="0 0 1024 1024" version="1.1" xmlns="http://www.w3.org/2000/svg"><path d="M253 618h191a3 3 0 0 1 3 3v265a3 3 0 0 1-3 3H252a3 3 0 0 1-3-3V622a4 4 0 0 1 4-4zM603 352h165a7 7 0 0 1 7 7v460H603a7 7 0 0 1-7-7V359a7 7 0 0 1 7-7z" fill="#00DDB9" /><path d="M555 831m24.5 0l190 0q24.5 0 24.5 24.5l0 1q0 24.5-24.5 24.5l-190 0q-24.5 0-24.5-24.5l0-1q0-24.5 24.5-24.5Z" fill="#FFDA84" /><path d="M555 831h64v50h-64z" fill="#FFF0CC" /><path d="M730 831h64v50h-64z" fill="#FFC132" /><path d="M269 332h130v217H269z" fill="#00DDB9" /><path d="M320.124 164.183L383 125v205H314V175.216a13 13 0 0 1 6.124-11.033z" fill="#FF8484" /><path d="M366 332h33v217h-33z" fill="#00BFA0" /><path d="M270 332h33v217H270z" fill="#46F6DA" /><path d="M259 563h151v23H259z" fill="#FFDA84" /><path d="M259 563h44v23H259z" fill="#FFF0CC" /><path d="M366 563h44v23h-44z" fill="#FFC132" /><path d="M336 665m-22 0a22 22 0 1 0 44 0 22 22 0 1 0-44 0Z" fill="#FF8484" /><path d="M380.537 107.766A15 15 0 0 1 383 116.002V320.7h12c8.284 0 15 6.716 15 15v212.033c7.818 0.515 14 7.02 14 14.968V585.7h16c8.284 0 15 6.716 15 15v280c0 8.285-6.716 15-15 15H230c-8.284 0-15-6.715-15-15v-280c0-8.284 6.716-15 15-15h14v-23c0-7.948 6.182-14.452 14-14.967V335.701c0-8.285 6.716-15 15-15l13-0.001V160.016a15 15 0 0 1 6.764-12.537l67-44.014c6.924-4.549 16.224-2.623 20.773 4.3zM772 319.7c8.284 0 15 6.715 15 15l0.001 486.078C800.037 827.232 809 840.67 809 856.201c0 21.815-17.685 39.5-39.5 39.5h-190c-21.815 0-39.5-17.685-39.5-39.5 0-15.926 9.425-29.65 23-35.9v-485.6c0-8.285 6.716-15 15-15h194zM440 671l-72.768 0.001C364.039 685.307 351.268 696 336 696c-15.268 0-28.039-10.693-31.232-24.999L230 671v204.7a5 5 0 0 0 5 5h200a5 5 0 0 0 5-5V671z m329.5 160.7h-190c-13.531 0-24.5 10.97-24.5 24.5 0 13.396 10.75 24.28 24.095 24.497l0.405 0.004h190c13.531 0 24.5-10.97 24.5-24.5 0-13.396-10.75-24.28-24.095-24.497l-0.405-0.003z m-1.5-497H582a5 5 0 0 0-5 5v477h196v-477a5 5 0 0 0-5-5zM336 647c-9.389 0-17 7.611-17 17s7.611 17 17 17 17-7.611 17-17-7.611-17-17-17z m99-46.3H235a5 5 0 0 0-5 5V656h75.008c3.552-13.802 16.081-24 30.992-24 14.91 0 27.44 10.198 30.992 24H440v-50.3a5 5 0 0 0-5-5z m-31-38H264a5 5 0 0 0-5 5v13a5 5 0 0 0 5 5h140a5 5 0 0 0 5-5v-13a5 5 0 0 0-5-5z m-14-227H278a5 5 0 0 0-5 5v202a5 5 0 0 0 5 5h112a5 5 0 0 0 5-5v-202a5 5 0 0 0-5-5zM364 119.415a4 4 0 0 0-2.196 0.657l-58.55 38.463A5 5 0 0 0 301 162.714V315.2a5 5 0 0 0 5 5h57a5 5 0 0 0 5-5V123.414a4 4 0 0 0-4-4z" fill="#3D3D3D" /></svg>