<?xml version="1.0" standalone="no"?><!DOCTYPE svg PUBLIC "-//W3C//DTD SVG 1.1//EN" "http://www.w3.org/Graphics/SVG/1.1/DTD/svg11.dtd"><svg class="icon" width="114px" height="114.00px" viewBox="0 0 1024 1024" version="1.1" xmlns="http://www.w3.org/2000/svg"><path d="M330 593l31-4.5 7.5 281.5c0.5 8-4 12-13.5 12-7.77 0-15.429-3.791-22.977-11.374a17 17 0 0 1-4.95-12.18L330 593zM638 582h39v279c0 18.225-14.775 33-33 33h-11V587a5 5 0 0 1 5-5zM636 162h82v420h-71c-44.735 0-81-36.265-81-81V232c0-38.66 31.34-70 70-70z" fill="#00DDB9" /><path d="M190 366.5a212.5 155.5 90 1 0 311 0 212.5 155.5 90 1 0-311 0Z" fill="#00DDB9" /><path d="M220 366.5a178.5 125 90 1 0 250 0 178.5 125 90 1 0-250 0Z" fill="#FFDA84" /><path d="M336 128c96.098 0 174 104.318 174 233 0 114.735-61.93 210.1-143.47 229.425l9.214 268.62a35 35 0 0 1-4.698 18.75C363.626 890.6 352.111 897 336.5 897c-16.285 0-28.341-6.966-36.17-20.897a32 32 0 0 1-4.083-16.774l9.223-268.904C223.93 571.1 162 475.735 162 361 162 232.318 239.902 128 336 128z m320 465h-30c-5.523 0-10 4.477-10 10v254c0 13.669 10.97 24.776 24.587 24.997L641 882c13.669 0 24.776-10.97 24.997-24.587L666 857V603c0-5.523-4.477-10-10-10z m-304.389 0.075c-5.143 0.612-10.35 0.925-15.611 0.925l-0.336-0.002L335 594c-4.924 0-9.735-0.27-14.43-0.81l-0.185-0.022-9.164 267.175a15 15 0 0 0 2.087 8.161c5.33 8.995 12.913 13.494 22.75 13.497 9.8 0 17.336-4.404 22.607-13.21a15 15 0 0 0 2.12-8.218l-9.174-267.498zM336 143C249.295 143 177 239.81 177 361c0 106.887 56.237 194.808 128.997 214.073L306 575c0.854 0.253 1.715 0.494 2.581 0.723a116.597 116.597 0 0 0 25.948 3.268l0.955 0.006 0.664-0.002c9.95-0.096 19.901-1.427 29.852-3.995l0.002 0.074C438.762 555.809 495 467.888 495 361c0-121.19-72.295-218-159-218z m362 0h-70c-44.183 0-80 35.817-80 80v275c0 44.183 35.817 80 80 80h70c5.523 0 10-4.477 10-10V153c0-5.523-4.477-10-10-10zM336 164c76.215 0 138 87.304 138 195s-61.785 195-138 195S198 466.696 198 359 259.785 164 336 164z m0 10c-69.804 0-128 82.234-128 185s58.196 185 128 185 128-82.234 128-185S405.804 174 336 174z m387 399c0 11.046-8.954 20-20 20h-22v264c0 22.091-17.909 40-40 40s-40-17.909-40-40V590.292c-39.071-9.816-68-45.176-68-87.292V218c0-49.706 40.294-90 90-90h80c11.046 0 20 8.954 20 20v60h130c5.523 0 10 4.477 10 10s-4.477 10-10 10H723v26h130c5.523 0 10 4.477 10 10s-4.477 10-10 10H723v26h130c5.523 0 10 4.477 10 10s-4.477 10-10 10H723v26h130c5.523 0 10 4.477 10 10s-4.477 10-10 10H723v26h130c5.523 0 10 4.477 10 10s-4.477 10-10 10H723v26h130c5.523 0 10 4.477 10 10s-4.477 10-10 10H723v26h130c5.523 0 10 4.477 10 10s-4.477 10-10 10H723v69z m-387-89c5.523 0 10 4.477 10 10s-4.477 10-10 10-10-4.477-10-10 4.477-10 10-10z m50-46c5.523 0 10 4.477 10 10s-4.477 10-10 10-10-4.477-10-10 4.477-10 10-10z m-50 0c5.523 0 10 4.477 10 10s-4.477 10-10 10-10-4.477-10-10 4.477-10 10-10z m-50 0c5.523 0 10 4.477 10 10s-4.477 10-10 10-10-4.477-10-10 4.477-10 10-10z m-50-46c5.523 0 10 4.477 10 10s-4.477 10-10 10-10-4.477-10-10 4.477-10 10-10z m150 0c5.523 0 10 4.477 10 10s-4.477 10-10 10-10-4.477-10-10 4.477-10 10-10z m-50 0c5.523 0 10 4.477 10 10s-4.477 10-10 10-10-4.477-10-10 4.477-10 10-10z m100 0c5.523 0 10 4.477 10 10s-4.477 10-10 10-10-4.477-10-10 4.477-10 10-10z m-150 0c5.523 0 10 4.477 10 10s-4.477 10-10 10-10-4.477-10-10 4.477-10 10-10z m50-46c5.523 0 10 4.477 10 10s-4.477 10-10 10-10-4.477-10-10 4.477-10 10-10z m100 0c5.523 0 10 4.477 10 10s-4.477 10-10 10-10-4.477-10-10 4.477-10 10-10z m-50 0c5.523 0 10 4.477 10 10s-4.477 10-10 10-10-4.477-10-10 4.477-10 10-10z m-150 0c5.523 0 10 4.477 10 10s-4.477 10-10 10-10-4.477-10-10 4.477-10 10-10z m50 0c5.523 0 10 4.477 10 10s-4.477 10-10 10-10-4.477-10-10 4.477-10 10-10z m50-46c5.523 0 10 4.477 10 10s-4.477 10-10 10-10-4.477-10-10 4.477-10 10-10z m-50 0c5.523 0 10 4.477 10 10s-4.477 10-10 10-10-4.477-10-10 4.477-10 10-10z m-50 0c5.523 0 10 4.477 10 10s-4.477 10-10 10-10-4.477-10-10 4.477-10 10-10z m200 0c5.523 0 10 4.477 10 10s-4.477 10-10 10-10-4.477-10-10 4.477-10 10-10z m-50 0c5.523 0 10 4.477 10 10s-4.477 10-10 10-10-4.477-10-10 4.477-10 10-10z m-50-46c5.523 0 10 4.477 10 10s-4.477 10-10 10-10-4.477-10-10 4.477-10 10-10z m-50 0c5.523 0 10 4.477 10 10s-4.477 10-10 10-10-4.477-10-10 4.477-10 10-10z m100 0c5.523 0 10 4.477 10 10s-4.477 10-10 10-10-4.477-10-10 4.477-10 10-10z m-50-46c5.523 0 10 4.477 10 10s-4.477 10-10 10-10-4.477-10-10 4.477-10 10-10z" fill="#3D3D3D" /></svg>