<?xml version="1.0" standalone="no"?><!DOCTYPE svg PUBLIC "-//W3C//DTD SVG 1.1//EN" "http://www.w3.org/Graphics/SVG/1.1/DTD/svg11.dtd"><svg class="icon" width="114px" height="114.00px" viewBox="0 0 1024 1024" version="1.1" xmlns="http://www.w3.org/2000/svg"><path d="M664 384H386.999a5 5 0 0 0-5 5v49.213a5 5 0 0 1-1.86 3.891l-3.72 3.002C320.264 490.41 289 549.459 289 623c0 72.805 30.603 140.229 85.74 185.528l1.678 1.366 3.721 3.002a5 5 0 0 1 1.86 3.891V887a5 5 0 0 0 5 5H664a5 5 0 0 0 5-5l0.001-56.213a5 5 0 0 1 1.86-3.892l3.722-3.002C730.735 778.59 764 710.54 764 637c0-72.805-32.603-140.228-87.74-185.527l-1.677-1.366-3.721-3.002a5 5 0 0 1-1.86-3.892L669 389a5 5 0 0 0-5-5z" fill="#00DDB9" /><path d="M421 278h182v77H421z" fill="#FF8484" /><path d="M421 278h47v77h-47z" fill="#FFD2C5" /><path d="M421 278h47v77h-47z" fill="#FFB8B8" /><path d="M556 278h47v77h-47z" fill="#EA5353" /><path d="M500 156h25v108h-25zM398 558h260v161H390V566a8 8 0 0 1 8-8z" fill="#FFDA84" /><path d="M665.382 116.603l60.039 35.638c8.324 4.942 11.066 15.695 6.125 24.02-0.1 0.167-0.201 0.332-0.306 0.496-5.488 8.581-16.702 11.416-25.608 6.474l-48.138-26.708a40 40 0 0 0-19.406-5.023H423.25c-11.184 0-20.25-9.066-20.25-20.25S412.066 111 423.25 111h221.714a40 40 0 0 1 20.418 5.603z" fill="#FFDA84" /><path d="M644.336 85a50 50 0 0 1 24.94 6.664l0.582 0.34 61.829 36.7c0.304 0.181 0.605 0.367 0.902 0.557 14.816 9.475 19.145 29.166 9.67 43.982-9.87 15.433-29.936 20.635-46.037 12.027l-0.486-0.265-41.86-23.226a50 50 0 0 0-23.552-6.274l-0.707-0.005H540V264h63c8.284 0 15 6.716 15 15v76h39c8.284 0 15 6.716 15 15l0.001 57.432C729.94 474.176 767 545.76 767 626c0 80.24-37.06 151.824-94.999 198.568V881c-0.001 8.284-6.717 15-15.001 15H367c-8.284 0-15-6.716-15-15v-56.432C294.06 777.824 257 706.24 257 626c0-80.24 37.061-151.824 95-198.568V370c0-8.284 6.716-15 15-15h39v-76c0-8.284 6.716-15 15-15h64V155.5h-63.75c-19.273 0-34.934-15.468-35.245-34.667l-0.005-0.583c0-19.273 15.468-34.934 34.667-35.245l0.583-0.005h223.086zM652 370H371.999a5 5 0 0 0-4.995 4.783l-0.005 0.217v57.213a5 5 0 0 1-1.86 3.891l-3.72 3.002C305.264 484.41 272 552.459 272 626c0 72.805 32.603 140.229 87.74 185.528l1.678 1.366 3.721 3.002a5 5 0 0 1 1.86 3.891V876a5 5 0 0 0 5 5H652a5 5 0 0 0 5-5l0.001-56.213a5 5 0 0 1 1.86-3.892l3.722-3.002C718.735 767.59 752 699.54 752 626c0-72.805-32.603-140.228-87.74-185.527l-1.677-1.366-3.721-3.002a5 5 0 0 1-1.86-3.892L657 375a5 5 0 0 0-5-5z m-11 162c11.046 0 20 8.954 20 20v153c0 11.046-8.954 20-20 20H384c-11.046 0-20-8.954-20-20V552c0-11.046 8.954-20 20-20h257z m-5 15H389c-5.523 0-10 4.477-10 10v143c0 5.523 4.477 10 10 10h247c5.523 0 10-4.477 10-10V557c0-5.523-4.477-10-10-10z m-38-268H426a5 5 0 0 0-5 5v66a5 5 0 0 0 5 5h33v-60.5a7.5 7.5 0 1 1 15 0V355h30.999l0.001-60.5a7.5 7.5 0 1 1 15 0l-0.001 60.5h31l0.001-60.5a7.5 7.5 0 1 1 15 0l-0.001 60.5H598a5 5 0 0 0 5-5v-66a5 5 0 0 0-5-5z m-78-123h-15a5 5 0 0 0-5 5v98a5 5 0 0 0 5 5h15a5 5 0 0 0 5-5v-98a5 5 0 0 0-5-5z m122.964-56H421.25c-11.184 0-20.25 9.066-20.25 20.25 0 11.068 8.88 20.063 19.905 20.247l0.345 0.003h214.838a40 40 0 0 1 18.83 4.71l0.576 0.313 48.138 26.708c8.906 4.942 20.12 2.107 25.608-6.474 0.105-0.164 0.207-0.33 0.306-0.497 4.883-8.226 2.262-18.825-5.834-23.842l-0.291-0.177-60.04-35.638A40 40 0 0 0 642.965 100z" fill="#3D3D3D" /></svg>