<?xml version="1.0" standalone="no"?><!DOCTYPE svg PUBLIC "-//W3C//DTD SVG 1.1//EN" "http://www.w3.org/Graphics/SVG/1.1/DTD/svg11.dtd"><svg class="icon" width="114px" height="114.00px" viewBox="0 0 1024 1024" version="1.1" xmlns="http://www.w3.org/2000/svg"><path d="M297.997 529h186.692c27.614 0 50 22.386 50 50a50 50 0 0 1-0.135 3.666l-16.537 224.927C516.135 833.192 494.817 853 469.15 853H319.237c-25.642 0-46.947-19.77-48.863-45.34l-17.251-230.299c-1.857-24.783 16.73-46.379 41.512-48.235a45 45 0 0 1 3.362-0.126zM656 529h129v310H642V543c0-7.732 6.268-14 14-14z" fill="#00DDB9" /><path d="M323 427h138v80H318v-75a5 5 0 0 1 5-5zM255.5 609H425v173H268zM690 276h20v219h-20z" fill="#FFDA84" /><path d="M686.5 261H715l26-91.16c-10.667-6.227-24.167-9.34-40.5-9.34s-30.667 3.673-43 11.02l29 89.48z" fill="#FF8484" /><path d="M448 399c11.046 0 20 8.954 20 20v75h3.924c38.66 0 70 31.34 70 70a70 70 0 0 1-0.242 5.813l-22.154 265.848C518.664 846.027 510 854 499.598 854H256.402c-10.402 0-19.067-7.973-19.931-18.34l-4.479-53.74L217 602l-2.682-32.187c-3.21-38.526 25.418-72.36 63.945-75.571a70 70 0 0 1 5.813-0.242h3.923l0.001-75c0-11.046 8.954-20 20-20h140z m252-269c16.442 0 31.757 4.393 45.946 13.179a15 15 0 0 1 6.695 16.227L725 275.5V494h55c11.046 0 20 8.954 20 20v320c0 11.046-8.954 20-20 20H620c-11.046 0-20-8.954-20-20V514c0-11.046 8.954-20 20-20h55V275.5l-27.641-116.094a15 15 0 0 1 6.695-16.227C668.243 134.393 683.558 130 700 130zM472.218 509H283.781c-30.376 0-55 24.624-55 55a55 55 0 0 0 0.201 4.705l2.86 33.295H421c8.284 0 15 6.716 15 15v150c0 8.284-6.716 15-15 15H247.294l4.11 47.855a10 10 0 0 0 9.963 9.145h233.265a10 10 0 0 0 9.963-9.145l22.422-261.15c2.598-30.264-19.83-56.905-50.094-59.503a55 55 0 0 0-4.705-0.202zM775 509H625c-5.523 0-10 4.477-10 10v310c0 5.523 4.477 10 10 10h150c5.523 0 10-4.477 10-10V519c0-5.523-4.477-10-10-10zM411 617H233.302l5.703 68.447L246.007 767H411c5.523 0 10-4.477 10-10V627c0-5.523-4.477-10-10-10z m32-203H313c-5.523 0-10 4.477-10 10v6.083a6.04 6.04 0 0 1 1-0.083h72a6 6 0 1 1 0 12h-72a6.04 6.04 0 0 1-1-0.083v24.166a6.04 6.04 0 0 1 1-0.083h52a6 6 0 1 1 0 12h-52a6.04 6.04 0 0 1-1-0.083V484c0 5.523 4.477 10 10 10h130c5.523 0 10-4.477 10-10v-22.083a6.04 6.04 0 0 1-1 0.083h-66a6 6 0 0 1 0-12h66c0.34 0 0.675 0.028 1 0.083V424c0-5.523-4.477-10-10-10z m257-138c-5.523 0-10 4.477-10 10v198c0 5.523 4.477 10 10 10s10-4.477 10-10V286c0-5.523-4.477-10-10-10z m-18.713-127.876L686.5 186.5l-10.883-36.431c-3.434 1.441-6.483 3.257-9.15 5.448a8 8 0 0 0-2.702 8.034l21.62 90.802a8 8 0 0 0 7.782 6.147h13.665a8 8 0 0 0 7.783-6.147l21.61-90.766a8 8 0 0 0-2.748-8.07c-2.31-1.871-4.907-3.468-7.791-4.792L715 186.5l5.145-37.875c-4.85-1.492-10.344-2.368-16.486-2.63L700.5 183l-3.165-37.058c-5.94 0.15-11.29 0.877-16.048 2.182z" fill="#3D3D3D" /></svg>